<?xml version="1.0" standalone="no"?>
<!DOCTYPE svg PUBLIC "-//W3C//DTD SVG 20010904//EN"
 "http://www.w3.org/TR/2001/REC-SVG-20010904/DTD/svg10.dtd">
<svg version="1.0" xmlns="http://www.w3.org/2000/svg"
 width="3087.000000pt" height="3088.000000pt" viewBox="0 0 3087.000000 3088.000000"
 preserveAspectRatio="xMidYMid meet">
<metadata>
Created by potrace 1.16, written by Peter Selinger 2001-2019
</metadata>
<g transform="translate(0.000000,3088.000000) scale(0.100000,-0.100000)"
fill="#000000" stroke="none">
<path d="M14878 20793 c596 -2 1568 -2 2160 0 592 1 105 2 -1083 2 -1188 0
-1673 -1 -1077 -2z"/>
<path d="M11465 16335 c0 -445 1 -629 2 -408 2 221 2 585 0 810 -1 224 -2 44
-2 -402z"/>
<path d="M6337 6013 c-5 -7 1851 -7 4498 0 545 1 -244 3 -1752 5 -1508 1
-2744 -1 -2746 -5z"/>
<path d="M13223 3983 c406 -2 1068 -2 1470 0 403 1 71 2 -738 2 -808 0 -1138
-1 -732 -2z"/>
</g>
</svg>
