<svg width="1103" height="1080" viewBox="0 0 1103 1080" fill="none" xmlns="http://www.w3.org/2000/svg">
<path d="M183.46 797.451C156.069 852.458 65.0729 876.132 44.4132 813.002C42.324 806.271 42.3238 799.772 44.1808 793.737C42.788 787.703 42.7884 781.204 45.3419 774.705C69.4836 712.503 159.086 741.051 183.46 797.451ZM92.2324 794.898C97.3393 801.629 106.392 805.342 115.91 802.093C120.32 800.7 123.57 798.38 125.892 795.826C123.57 793.041 120.552 790.488 116.142 788.863C107.089 785.382 97.8035 788.631 92.2324 794.898ZM30.9498 793.273C26.3072 819.965 44.645 851.066 73.8937 860.582C114.517 874.043 163.497 845.959 215.031 798.147C166.051 747.55 118.696 716.913 77.3763 728.286C47.6633 736.409 27.7 766.582 30.9498 793.273Z" fill="#DBBD8A" fill-opacity="0.61"/>
<path d="M315.545 424.702C261.225 453.018 173.479 418.667 193.906 355.537C195.996 348.806 200.174 343.7 205.049 339.986C207.37 334.184 211.317 329.077 217.352 325.132C273.064 289.157 329.008 364.82 315.545 424.702ZM243.119 369.23C243.351 377.586 248.458 385.941 257.976 388.959C262.386 390.351 266.332 390.583 269.814 389.655C269.582 385.941 268.421 382.228 266.1 378.514C260.761 369.926 251.476 367.141 243.119 369.23ZM194.603 331.862C175.103 350.662 171.622 386.637 189.728 411.472C214.799 446.287 270.743 452.321 340.616 443.734C330.866 374.104 310.438 321.418 270.279 306.332C241.494 295.655 207.602 308.188 194.603 331.862Z" fill="#DBBD8A" fill-opacity="0.61"/>
<path d="M641.459 200.959C580.639 191.907 530.034 112.529 583.657 73.5368C589.461 69.3591 595.728 67.5024 601.764 67.5024C607.103 64.253 613.37 62.3961 620.334 62.6282C686.725 66.1097 687.421 160.341 641.459 200.959ZM615.692 113.458C611.049 120.421 610.12 130.169 616.156 138.292C618.942 142.006 621.959 144.327 625.209 145.952C627.298 142.934 628.459 139.221 628.691 134.579C629.156 124.366 623.352 116.707 615.692 113.458ZM598.282 54.505C571.586 58.2186 547.676 85.3738 547.444 116.011C547.212 158.717 588.996 196.781 650.512 230.899C683.475 168.697 697.868 114.154 674.422 78.411C657.476 52.8803 622.656 43.1322 598.282 54.505Z" fill="#DBBD8A" fill-opacity="0.61"/>
<path d="M1036.78 211.171C992.907 168.233 998.711 74.2333 1064.87 74.2333C1071.83 74.2333 1078.1 76.3222 1083.21 80.0358C1089.48 80.5 1095.51 82.5889 1101.08 86.9988C1152.62 129.009 1097.83 205.369 1036.78 211.171ZM1067.19 125.295C1059.3 128.08 1053.03 135.507 1053.03 145.488C1053.03 150.13 1054.19 153.843 1056.05 156.861C1059.53 155.7 1062.78 153.379 1065.57 149.898C1071.83 142.238 1071.6 132.49 1067.19 125.295ZM1087.62 67.5026C1063.71 54.7372 1028.42 62.6286 1010.32 87.4631C985.015 122.046 996.622 177.285 1026.1 240.88C1089.24 210.011 1133.12 174.268 1135.21 131.562C1136.6 100.925 1114.31 72.6088 1087.62 67.5026Z" fill="#DBBD8A" fill-opacity="0.61"/>
<path d="M366.846 1127.73C354.311 1221.72 320.651 1299.25 237.083 1337.31C228.958 1324.78 211.548 1325.24 203.424 1336.38C180.907 1367.25 243.35 1384.66 240.101 1346.59C355.703 1299.94 371.488 1163.47 390.291 1111.25C334.811 1110.09 202.031 1075.74 116.838 1166.95C82.4821 1150.24 76.4467 1214.76 113.356 1205.01C126.588 1201.53 133.32 1185.52 124.499 1173.22C189.96 1109.16 274.457 1105.68 366.846 1127.73Z" fill="#DBBD8A" fill-opacity="0.61"/>
<path d="M269.582 799.54C204.12 868.241 131.462 911.18 41.3945 892.844C42.0909 877.757 27.9309 868.009 14.6993 872.419C-21.7456 884.256 18.6453 935.086 38.3766 902.36C159.318 932.533 252.171 831.338 298.134 800.236C254.028 766.814 166.514 660.978 44.18 684.652C26.3057 650.997 -16.6388 699.506 18.8775 713.432C31.6449 718.306 46.5014 709.486 46.5014 694.4C137.498 680.938 208.066 727.59 269.582 799.54Z" fill="#DBBD8A" fill-opacity="0.61"/>
<path d="M384.023 477.155C290.706 494.33 206.441 486.207 144.462 418.667C153.979 406.83 147.944 390.583 134.944 386.405C98.4994 374.568 101.285 439.323 136.569 424.469C216.655 520.093 351.293 492.705 406.773 494.562C390.755 441.412 382.166 304.475 269.117 251.789C274.456 213.957 211.084 228.115 231.744 260.144C239.172 271.749 256.582 273.141 265.403 261.072C346.882 303.314 376.363 382.691 384.023 477.155Z" fill="#DBBD8A" fill-opacity="0.61"/>
<path d="M665.832 283.354C580.175 242.273 516.803 186.337 506.589 95.3547C521.214 91.409 525.856 74.6981 517.963 63.5574C495.447 32.6885 459.698 86.7671 496.839 95.3547C505.66 219.759 630.316 276.855 674.189 310.741C692.527 258.287 766.114 142.471 705.527 33.3847C731.99 5.9972 672.564 -19.9976 670.475 18.2985C669.778 31.9923 682.778 43.3648 697.17 38.7228C738.025 121.117 715.508 202.584 665.832 283.354Z" fill="#DBBD8A" fill-opacity="0.61"/>
<path d="M1008 292.406C962.963 209.083 944.392 126.456 989.658 46.6144C1003.82 51.9526 1017.51 41.2759 1017.51 27.5822C1017.51 -10.714 956.695 12.0318 981.765 40.8119C915.608 146.648 983.158 266.179 998.479 319.329C1043.98 287.764 1171.65 237.166 1186.97 113.458C1224.58 106.727 1191.61 51.024 1167.47 80.5004C1158.88 91.1769 1162.83 108.12 1176.99 112.762C1161.9 203.512 1095.51 255.966 1008 292.406Z" fill="#DBBD8A" fill-opacity="0.61"/>
<path d="M677.439 1225.21C679.064 1234.95 680.457 1244.7 681.386 1254.22C685.1 1283.23 666.529 1266.29 666.529 1290.19C666.529 1318.74 709.706 1318.74 709.706 1290.19C709.706 1264.66 670.475 1286.48 698.796 1169.27C700.42 1162.54 702.045 1156.5 703.902 1150.7C701.581 1156.5 699.259 1162.31 696.242 1168.34C644.244 1277.2 627.763 1235.42 611.513 1255.38C593.639 1277.66 627.066 1304.58 644.94 1282.53C660.029 1263.97 634.959 1265.36 656.083 1245.17C663.047 1238.44 670.011 1231.7 677.439 1225.21ZM463.645 1061.11C459.234 1069.93 454.591 1078.52 449.717 1086.88C435.789 1112.41 430.682 1087.8 416.522 1107.3C399.808 1130.28 434.628 1155.81 451.342 1132.6C466.43 1111.94 421.861 1106.6 513.553 1028.39C518.66 1023.98 523.768 1020.03 528.642 1016.32C523.303 1019.57 517.964 1022.82 511.929 1026.07C405.844 1083.63 416.986 1040.22 392.38 1046.72C364.756 1054.15 375.899 1095.7 403.522 1088.5C426.736 1082.23 405.611 1068.77 434.396 1064.83C444.145 1063.2 453.895 1062.04 463.645 1061.11ZM387.273 802.788C378.452 807.43 369.631 811.607 360.81 815.553C334.347 828.086 344.793 805.109 322.043 812.536C294.884 821.356 308.116 862.437 335.275 853.617C359.649 845.726 326.686 815.321 446.931 805.805C453.663 805.109 460.163 805.109 466.199 804.877C459.931 804.413 453.663 803.948 446.931 803.02C327.383 787.237 361.97 758.689 338.061 749.405C311.365 739.193 296.045 779.346 322.508 789.79C344.793 798.378 335.74 774.936 361.506 788.862C370.095 793.04 378.684 797.681 387.273 802.788ZM477.109 548.64C467.359 547.248 457.841 545.391 448.324 543.302C419.771 537.964 441.592 525.431 418.611 518.004C391.451 509.184 378.22 550.265 405.379 559.085C429.753 566.976 420.932 523.11 523.767 586.008C529.57 589.49 534.91 593.203 540.017 596.685C535.374 592.739 530.499 588.561 525.625 583.919C438.11 500.828 482.912 498.043 468.984 476.458C453.431 452.552 417.218 475.994 432.771 499.9C445.771 520.093 452.271 495.722 464.806 521.949C469.216 531.001 473.395 539.821 477.109 548.64ZM699.26 396.152C692.296 389.189 685.564 382.227 679.064 374.799C659.101 353.678 683.939 356.464 670.011 336.967C653.298 313.99 618.246 339.288 635.191 362.266C650.28 382.923 669.083 342.306 715.045 453.713C717.831 459.979 719.919 466.014 721.776 471.816C720.152 465.782 718.759 459.747 717.598 453.016C695.546 334.414 733.615 358.32 735.008 332.789C736.401 304.241 693.457 302.153 691.832 330.469C690.671 354.375 709.938 338.592 704.831 367.14C703.206 376.888 701.349 386.636 699.26 396.152ZM968.766 403.347C967.141 393.599 965.748 383.851 964.82 374.335C961.106 345.323 979.677 362.266 979.677 338.36C979.677 309.812 936.499 309.812 936.499 338.36C936.499 363.891 975.73 342.074 947.41 459.283C945.785 466.014 944.16 472.048 942.303 477.851C944.624 472.048 946.946 466.246 949.964 460.211C1001.96 351.357 1018.44 393.135 1034.69 373.175C1052.57 350.893 1019.14 323.97 1001.26 346.019C986.176 364.587 1011.25 363.194 990.122 383.387C983.158 390.118 976.195 396.849 968.766 403.347ZM1182.56 567.44C1186.97 558.621 1191.61 550.033 1196.49 541.677C1210.42 516.147 1215.52 540.749 1229.68 521.253C1246.4 498.275 1211.58 472.745 1194.86 495.954C1179.77 516.611 1224.34 521.949 1132.65 600.166C1127.55 604.576 1122.44 608.522 1117.56 612.235C1122.9 608.986 1128.24 605.737 1134.28 602.487C1240.36 544.927 1229.22 588.329 1253.83 581.831C1281.45 574.404 1270.31 532.858 1242.68 540.053C1219.47 546.32 1240.59 559.781 1211.81 563.727C1202.06 565.12 1192.31 566.28 1182.56 567.44ZM1258.93 825.765C1267.75 821.123 1276.57 816.946 1285.4 813C1311.86 800.467 1301.41 823.444 1324.16 816.017C1351.32 807.198 1338.09 766.116 1310.93 774.936C1286.56 782.827 1319.52 813.232 1199.27 822.748C1192.54 823.444 1186.04 823.445 1180.01 823.677C1186.27 824.141 1192.54 824.605 1199.27 825.533C1318.82 841.316 1284.23 869.864 1308.14 879.148C1334.84 889.36 1350.16 849.207 1323.7 838.763C1301.41 830.175 1310.47 853.617 1284.7 839.691C1276.11 835.282 1267.52 830.639 1258.93 825.765ZM1169.1 1079.68C1178.85 1081.07 1188.36 1082.93 1197.88 1085.02C1226.43 1090.36 1204.61 1102.89 1227.59 1110.32C1254.75 1119.14 1267.99 1078.06 1240.83 1069.24C1216.45 1061.34 1225.27 1105.21 1122.44 1042.31C1116.63 1038.83 1111.3 1035.12 1106.19 1031.64C1110.83 1035.58 1115.71 1039.76 1120.58 1044.4C1208.1 1127.49 1163.29 1130.28 1177.22 1151.86C1192.77 1175.77 1228.99 1152.33 1213.43 1128.42C1200.44 1108.23 1193.94 1132.6 1181.4 1106.37C1176.99 1097.55 1172.81 1088.73 1169.1 1079.68ZM946.946 1232.17C953.91 1239.13 960.641 1246.09 967.141 1253.52C987.105 1274.64 962.267 1271.86 976.195 1291.35C992.908 1314.33 1027.96 1289.03 1011.01 1266.06C995.926 1245.4 977.123 1286.02 931.161 1174.61C928.607 1168.34 926.286 1162.31 924.429 1156.5C926.054 1162.54 927.446 1168.57 928.607 1175.3C950.66 1293.91 912.59 1270 911.197 1295.53C909.804 1324.08 952.749 1326.17 954.374 1297.85C955.535 1273.95 936.268 1289.73 941.375 1261.18C943 1251.43 944.857 1241.92 946.946 1232.17Z" fill="#DBBD8A" fill-opacity="0.61"/>
<path d="M231.279 989.395C194.602 979.415 150.729 991.716 132.391 1018.64C162.336 1031.4 205.976 1017.71 231.279 989.395ZM114.285 1023.98C116.142 1018.87 118.695 1013.76 122.177 1009.12C147.247 974.309 203.655 968.274 273.527 976.862C219.44 1022.12 168.836 1047.88 128.909 1032.33C123.57 1030.24 118.695 1027.46 114.285 1023.98Z" fill="#DBBD8A" fill-opacity="0.61"/>
<path d="M241.261 608.06C217.584 578.351 174.639 562.569 143.998 573.477C160.943 601.561 204.12 616.183 241.261 608.06ZM126.355 567.442C130.998 564.425 136.105 561.872 141.444 560.015C182.067 546.554 231.279 574.87 283.045 622.914C212.709 627.788 156.765 618.736 133.552 582.761C130.302 577.887 127.98 572.781 126.355 567.442Z" fill="#DBBD8A" fill-opacity="0.61"/>
<path d="M473.627 305.634C471.77 267.57 446.467 229.739 415.129 220.455C412.343 252.948 438.806 290.316 473.627 305.634ZM404.451 205.136C410.022 205.368 415.593 206.297 420.932 207.922C461.788 220.919 485.001 272.677 498.465 342.074C438.574 304.706 398.647 264.553 401.201 221.615C401.665 215.813 402.594 210.242 404.451 205.136Z" fill="#DBBD8A" fill-opacity="0.61"/>
<path d="M839.468 197.246C860.36 165.448 862.217 119.957 842.253 93.9624C820.665 118.797 820.2 164.52 839.468 197.246ZM842.486 75.3945C846.896 78.876 850.843 82.8218 854.325 87.4637C879.628 122.046 868.021 177.518 838.307 241.345C811.844 175.893 803.255 119.957 830.415 86.7675C833.897 82.3576 838.075 78.6439 842.486 75.3945Z" fill="#DBBD8A" fill-opacity="0.61"/>
<path d="M810.22 1300.41C750.794 1396.03 719.456 1490.73 771.221 1581.71C785.382 1576.37 799.078 1587.05 799.078 1600.74C799.078 1639.04 738.259 1616.29 763.329 1587.51C689.511 1469.37 782.132 1334.29 783.06 1293.21C785.614 1162.31 808.363 1065.29 805.577 1180.64C809.059 1274.18 801.399 1285.55 811.148 1267.91C819.969 1286.02 812.773 1274.18 821.362 1181.11C824.844 1065.76 842.486 1163.7 838.076 1294.6C836.915 1335.69 922.34 1475.64 842.254 1589.6C865.7 1619.77 803.72 1639.04 805.809 1600.97C806.505 1587.28 820.666 1577.3 834.594 1583.33C890.77 1495.14 864.539 1398.82 810.22 1300.41Z" fill="#DBBD8A" fill-opacity="0.61"/>
<path d="M527.017 1199.91C422.789 1242.38 341.774 1300.41 329.936 1404.62C344.56 1408.56 349.203 1425.27 341.311 1436.42C318.794 1467.28 283.045 1413.21 320.186 1404.62C329.936 1265.82 484.304 1210.82 509.142 1178.09C588.068 1073.65 663.511 1008.66 593.639 1100.34C541.641 1178.09 528.642 1182.96 546.748 1174.15C543.034 1194.11 544.427 1180.18 605.942 1109.85C676.51 1018.64 633.334 1108.23 552.783 1211.51C527.713 1244.01 514.481 1407.4 382.862 1452.66C384.023 1490.73 322.507 1470.07 346.649 1440.36C355.238 1429.69 372.648 1429.92 380.309 1443.15C477.573 1404.85 512.857 1311.55 527.017 1199.91Z" fill="#DBBD8A" fill-opacity="0.61"/>
<path d="M356.631 952.261C247.296 925.337 147.711 924.873 76.9101 1002.16C86.4276 1014 80.392 1030.25 67.3925 1034.42C30.9476 1046.26 33.7334 981.505 69.0176 996.359C158.621 889.827 315.775 936.014 355.006 924.177C480.358 886.113 579.479 877.757 468.983 910.947C381.237 943.209 367.773 939.495 387.737 943.209C373.112 957.135 382.398 946.69 473.394 926.034C584.122 893.54 496.375 940.656 370.559 976.863C331.096 988.468 224.547 1112.87 91.3022 1072.02C69.946 1103.59 32.3408 1050.67 69.25 1040.92C82.4816 1037.44 96.4097 1047.89 94.7848 1062.74C196.459 1088.97 279.795 1034.42 356.631 952.261Z" fill="#DBBD8A" fill-opacity="0.61"/>
<path d="M364.524 651.693C292.098 565.816 211.548 506.631 108.945 527.52C109.642 542.606 95.4817 552.355 82.2501 547.945C45.8053 536.108 86.1961 485.279 105.927 518.004C241.029 484.35 341.078 614.093 379.844 627.787C503.571 670.493 588.764 722.251 479.894 683.954C389.826 658.424 381.237 647.515 395.165 662.369C375.202 664.922 388.665 662.137 474.554 698.809C583.192 737.801 484.536 724.339 361.506 679.544C322.74 665.619 163.496 703.683 79.6963 592.508C43.9479 605.505 44.4126 540.518 80.161 554.212C92.9283 559.086 98.0352 575.797 88.0535 586.938C154.443 668.172 254.028 673.046 364.524 651.693Z" fill="#DBBD8A" fill-opacity="0.61"/>
<path d="M547.677 413.33C539.552 301.227 509.143 206.067 413.736 162.665C405.611 175.198 388.201 174.734 380.076 163.593C357.559 132.724 420.004 115.317 416.754 153.381C545.82 205.603 550.462 369.232 573.676 403.118C648.655 510.579 687.189 602.258 621.496 507.33C563.694 433.755 562.997 420.061 565.783 440.021C548.141 430.505 560.676 436.076 608.728 516.15C673.725 611.542 601.764 542.608 528.41 433.987C505.197 400.1 353.846 336.97 351.524 197.943C314.847 187.267 353.613 135.277 374.273 167.307C381.701 178.912 376.13 195.158 361.274 198.408C368.006 303.084 445.77 365.518 547.677 413.33Z" fill="#DBBD8A" fill-opacity="0.61"/>
<path d="M835.986 328.149C895.412 232.525 926.749 137.829 874.984 46.8466C860.824 52.1849 847.128 41.5082 847.128 27.8145C847.128 -10.4816 907.947 12.2641 882.876 41.0442C956.695 159.182 864.073 294.263 863.145 335.344C860.591 466.247 837.842 563.264 840.628 447.911C837.146 354.376 844.806 343.003 835.057 360.643C826.236 342.539 833.432 354.376 824.843 447.447C821.361 562.8 803.719 464.854 808.129 333.951C809.29 292.87 723.865 152.915 803.951 38.9554C780.506 8.78271 842.485 -10.4815 840.396 27.5825C839.7 41.2763 825.539 51.2563 811.611 45.2218C755.435 133.419 781.666 229.507 835.986 328.149Z" fill="#DBBD8A" fill-opacity="0.61"/>
<path d="M1119.19 428.415C1223.42 385.941 1304.43 327.917 1316.27 223.705C1301.65 219.759 1297 203.048 1304.89 191.908C1327.41 161.039 1363.16 215.117 1326.02 223.705C1316.27 362.499 1161.9 417.507 1137.06 450.232C1058.14 554.676 982.694 619.663 1052.57 527.985C1104.56 450.232 1117.56 445.358 1099.46 454.178C1103.17 434.45 1101.78 448.143 1040.26 518.469C969.695 609.683 1012.87 520.094 1093.42 416.81C1118.49 384.317 1131.72 220.92 1263.34 175.661C1262.18 137.597 1323.7 158.253 1299.56 187.962C1290.97 198.638 1273.56 198.406 1265.9 185.176C1168.63 223.473 1133.35 316.776 1119.19 428.415Z" fill="#DBBD8A" fill-opacity="0.61"/>
<path d="M1289.57 676.065C1398.91 702.988 1498.49 703.452 1569.29 626.164C1559.78 614.327 1565.81 598.08 1578.81 593.902C1615.26 582.065 1612.47 646.82 1577.19 631.966C1487.58 738.499 1330.43 692.311 1291.2 704.148C1165.85 742.212 1066.73 750.568 1177.22 717.378C1264.97 685.116 1278.43 688.83 1258.47 685.117C1273.09 671.191 1263.81 681.635 1172.81 702.292C1062.08 734.786 1149.83 687.67 1275.65 651.462C1315.11 639.858 1421.66 515.453 1554.9 556.302C1576.26 524.737 1613.86 577.655 1576.95 587.403C1563.72 590.885 1549.8 580.441 1551.42 565.586C1449.75 539.359 1366.41 594.134 1289.57 676.065Z" fill="#DBBD8A" fill-opacity="0.61"/>
<path d="M1281.68 976.631C1354.11 1062.51 1434.66 1121.69 1537.26 1100.8C1536.56 1085.72 1550.72 1075.97 1563.95 1080.38C1600.4 1092.22 1560.01 1143.04 1540.28 1110.32C1405.18 1143.97 1305.13 1014.23 1266.36 1000.54C1142.63 957.831 1057.44 906.073 1166.31 944.369C1256.38 969.9 1264.97 980.809 1251.04 965.954C1271 963.401 1257.54 966.186 1171.65 929.515C1063.01 890.522 1161.67 903.984 1284.7 948.779C1323.46 962.705 1482.71 924.641 1566.51 1035.82C1602.26 1022.82 1601.79 1087.81 1566.04 1074.11C1553.28 1069.24 1548.17 1052.53 1558.15 1041.39C1491.76 960.152 1392.18 955.51 1281.68 976.631Z" fill="#DBBD8A" fill-opacity="0.61"/>
<path d="M1098.53 1214.99C1106.65 1327.1 1137.06 1422.26 1232.47 1465.66C1240.59 1453.13 1258 1453.59 1266.13 1464.73C1288.65 1495.6 1226.2 1513.01 1229.45 1474.94C1100.39 1422.72 1095.74 1259.09 1072.53 1225.21C997.551 1117.75 959.017 1026.07 1024.71 1120.99C1082.51 1194.57 1083.21 1208.26 1080.42 1188.3C1098.06 1197.82 1085.53 1192.25 1037.48 1112.18C972.481 1016.78 1044.44 1085.72 1117.8 1194.34C1141.01 1228.22 1292.36 1291.35 1294.68 1430.38C1331.36 1441.06 1292.59 1493.05 1271.93 1461.02C1264.5 1449.41 1270.07 1433.17 1284.93 1429.92C1278.2 1325.24 1200.44 1262.81 1098.53 1214.99Z" fill="#DBBD8A" fill-opacity="0.61"/>
<path d="M761.703 987.308C763.792 995.2 766.346 1003.32 768.899 1011.21C775.631 1030.48 780.274 1077.83 782.363 1081.77C767.507 1114.27 775.863 1113.34 769.828 1084.79C764.024 1059.26 755.9 1050.67 751.954 1015.16C726.419 1040.23 714.812 1041.85 694.152 1057.87C671.403 1076.2 677.207 1082.24 686.26 1047.65C690.438 1045.8 723.633 1011.91 741.275 1001.23C748.239 996.824 755.203 992.182 761.703 987.308ZM875.216 990.325C881.716 995.431 888.215 1000.54 895.179 1005.41C912.125 1017.02 943.463 1052.53 947.642 1054.62C954.838 1089.66 960.873 1084.09 939.284 1064.6C919.553 1047.42 907.947 1045.33 883.805 1018.87C878.002 1054.15 869.413 1062.28 862.217 1087.34C854.557 1115.66 862.913 1117.05 849.682 1083.63C852.003 1079.68 858.967 1032.8 866.859 1013.77C869.877 1005.88 872.663 998.217 875.216 990.325ZM968.766 926.034C977.122 926.499 985.247 926.499 993.836 926.731C1014.26 926.266 1060.69 936.479 1065.1 935.782C1091.56 959.921 1093.19 951.797 1064.17 948.78C1038.17 946.459 1027.5 951.565 992.443 944.37C1008.46 976.399 1006.37 988.005 1015.42 1012.37C1025.87 1039.76 1033.3 1036.05 1003.12 1016.78C1002.66 1012.37 980.604 970.133 975.962 950.172C973.64 941.817 971.319 933.926 968.766 926.034ZM1006.6 819.037C1013.57 814.627 1020.3 809.753 1027.26 804.879C1043.51 792.346 1087.15 773.546 1090.4 770.297C1125.92 774.474 1122.67 766.815 1097.14 781.437C1074.62 794.899 1069.05 805.111 1036.55 819.966C1068.35 836.444 1073.46 847.121 1095.05 861.511C1119.65 877.526 1123.37 870.099 1087.62 872.188C1084.6 868.938 1042.12 847.585 1026.57 834.355C1019.83 829.017 1013.34 823.911 1006.6 819.037ZM974.569 710.183C977.587 702.524 980.14 694.633 982.925 686.509C988.729 666.781 1012.87 625.932 1013.57 621.522C1044.67 603.882 1037.48 599.705 1025.64 626.396C1015.42 650.534 1016.82 662.139 999.175 693.24C1034.46 687.902 1044.91 693.472 1070.9 692.544C1100.15 690.919 1098.99 682.796 1071.14 705.542C1066.73 704.613 1019.84 712.504 999.407 710.88C991.051 710.648 982.694 710.183 974.569 710.183ZM884.501 641.25C882.412 633.359 879.859 625.236 877.305 617.344C870.574 598.08 865.93 550.732 863.841 546.786C878.698 514.293 870.341 515.221 876.377 543.769C882.18 569.3 890.305 577.888 894.251 613.399C919.786 588.332 931.392 586.707 952.052 570.692C974.801 552.357 968.998 546.322 959.945 580.905C955.766 582.762 922.571 616.648 904.929 627.324C897.965 631.734 891.233 636.376 884.501 641.25ZM770.988 638.233C764.488 633.127 757.989 628.021 751.025 623.147C734.079 611.542 702.741 576.031 698.563 573.942C691.367 538.895 685.332 544.466 706.92 563.962C726.651 581.137 738.258 583.226 762.399 609.685C768.203 574.406 776.792 566.283 783.988 541.216C791.649 512.9 783.291 511.507 796.523 544.93C794.202 548.875 787.238 595.759 779.345 614.791C776.328 622.45 773.542 630.342 770.988 638.233ZM677.439 702.524C669.082 702.06 660.958 702.06 652.369 701.828C631.941 702.292 585.514 692.08 581.104 692.776C554.641 668.638 553.016 676.761 582.033 679.779C608.031 682.1 618.709 676.993 653.761 684.188C637.744 652.159 639.834 640.554 630.781 616.184C620.335 588.796 612.906 592.51 643.084 611.774C643.548 616.184 665.6 658.425 670.243 678.386C672.564 686.509 674.885 694.633 677.439 702.524ZM639.602 809.289C632.638 813.699 625.906 818.573 618.942 823.447C602.692 835.98 559.051 854.78 555.801 858.03C520.285 854.084 523.535 861.511 549.069 846.889C571.586 833.427 577.158 823.215 609.656 808.361C577.854 791.882 572.747 781.205 551.158 766.815C526.552 750.801 522.838 758.228 558.587 756.139C561.605 759.388 604.085 780.741 619.638 793.971C626.37 799.309 632.87 804.415 639.602 809.289ZM671.635 918.143C668.618 925.802 666.065 933.693 663.279 941.817C657.476 961.545 633.334 1002.39 632.637 1006.8C601.531 1024.44 608.728 1028.62 620.567 1001.93C630.78 977.792 629.387 966.187 647.029 935.086C611.745 940.424 601.3 934.854 575.069 935.782C545.82 937.407 546.981 945.531 574.836 922.785C579.247 923.713 626.138 915.822 646.565 917.447C655.154 917.911 663.511 918.143 671.635 918.143ZM738.258 1053.92C748.008 1092.22 767.042 1114.5 751.025 1175.08C746.382 1132.83 734.079 1132.14 729.669 1078.29C692.527 1117.28 682.314 1110.09 652.136 1140.03C677.671 1082.93 706.456 1077.59 738.258 1053.92ZM895.412 1058.1C925.821 1083.4 954.374 1090.13 976.891 1148.62C948.338 1117.05 937.892 1123.78 902.84 1082.93C895.644 1136.31 883.109 1136.55 876.377 1178.32C863.377 1117.05 883.573 1095.93 895.412 1058.1ZM1024.94 968.972C1064.4 971.757 1091.56 960.385 1144.26 994.271C1102.71 985.683 1098.06 997.288 1045.6 984.755C1071.14 1032.1 1061.15 1039.53 1080.42 1077.59C1033.76 1035.58 1037.71 1006.57 1024.94 968.972ZM1077.4 820.894C1110.83 799.773 1126.15 774.707 1188.83 771.457C1150.06 788.865 1153.31 800.934 1103.4 821.59C1151.92 844.8 1148.2 856.869 1186.04 876.133C1123.6 869.634 1109.67 843.64 1077.4 820.894ZM1032.83 670.263C1047.69 633.591 1045.14 604.347 1093.88 564.658C1072.76 601.562 1082.51 609.453 1054.42 655.408C1107.35 645.66 1111.29 657.497 1153.31 650.998C1098.76 682.332 1072.3 669.566 1032.83 670.263ZM907.947 574.406C898.198 536.11 879.162 513.829 895.179 453.251C899.822 495.493 912.125 496.189 916.536 550.036C953.677 511.043 963.891 518.239 994.068 488.298C968.534 545.394 939.749 550.732 907.947 574.406ZM750.793 570.228C720.383 544.93 691.832 538.199 669.315 479.71C697.867 511.275 708.313 504.545 743.365 545.394C750.561 492.011 763.096 491.779 769.828 450.002C782.827 511.275 762.632 532.629 750.793 570.228ZM621.263 659.354C581.8 656.569 554.641 667.942 501.946 634.055C543.498 642.643 548.141 631.038 600.603 643.571C575.068 596.223 585.05 588.796 565.783 550.732C612.442 592.742 608.496 621.986 621.263 659.354ZM568.801 807.432C535.374 828.553 520.053 853.62 457.377 856.869C496.143 839.462 492.893 827.393 542.802 806.736C494.286 783.526 498 771.457 460.163 752.193C522.607 758.924 536.534 784.687 568.801 807.432ZM613.371 958.296C598.514 994.967 601.067 1024.21 552.32 1063.9C573.444 1027 563.694 1019.11 591.782 973.15C538.855 982.898 534.91 971.061 492.894 977.56C547.445 946.227 573.908 958.76 613.371 958.296ZM715.045 1119.14C718.759 1137.24 724.794 1151.17 728.972 1169.27C757.06 1286.48 718.062 1264.67 718.062 1290.2C718.062 1318.74 761.239 1318.74 761.239 1290.2C761.239 1266.29 742.668 1283.23 746.382 1254.22C753.578 1180.41 781.203 1107.07 817.183 1037.91C849.45 1108.93 873.127 1183.66 876.609 1257.7C878.93 1286.71 861.056 1268.84 859.895 1292.75C858.503 1321.3 901.447 1323.62 903.072 1295.07C904.465 1269.54 864.074 1289.27 898.43 1173.68C903.536 1155.58 910.5 1142.35 915.143 1124.25C928.839 1136.78 941.838 1144.44 955.998 1156.51C1047.69 1234.72 1003.12 1240.06 1018.21 1260.72C1034.92 1283.93 1069.98 1258.4 1053.03 1235.42C1038.87 1216.16 1033.76 1240.53 1019.83 1215C982.229 1150.94 961.57 1075.51 949.963 998.449C1017.75 1036.98 1080.89 1083.4 1127.08 1141.42C1145.88 1163.7 1121.28 1159.52 1134.28 1179.72C1149.83 1203.62 1186.04 1180.18 1170.49 1156.28C1156.56 1134.92 1135.67 1174.61 1095.51 1060.88C1089.01 1043.24 1086.69 1028.39 1079.96 1011.21C1098.3 1013.3 1113.38 1011.68 1131.95 1013.3C1252.2 1022.82 1219.24 1053.22 1243.61 1061.12C1270.77 1069.93 1284 1028.85 1256.84 1020.03C1234.09 1012.61 1244.31 1035.58 1218.08 1023.05C1150.06 993.343 1089.01 944.37 1034.23 888.899C1111.76 880.079 1190.22 880.775 1261.72 900.503C1290.04 907.466 1267.52 918.607 1290.04 927.195C1316.73 937.407 1332.29 897.254 1305.59 886.81C1281.68 877.526 1288.18 922.089 1188.83 853.62C1173.27 843.175 1162.6 832.499 1147.04 822.519C1163.06 813.467 1174.43 803.254 1190.45 793.738C1293.29 730.608 1284.47 774.707 1308.84 766.815C1336 757.996 1322.54 716.914 1295.61 725.734C1272.86 733.161 1294.68 745.694 1265.9 751.032C1193.47 767.047 1115.24 763.334 1038.17 750.568C1095.74 697.882 1159.58 652.391 1228.99 626.164C1255.91 615.023 1244.54 637.304 1267.52 631.27C1295.14 623.843 1284 582.298 1256.38 589.493C1231.77 596.223 1262.88 628.253 1142.4 631.27C1123.6 631.966 1108.74 629.646 1090.4 630.806C1098.06 613.863 1101.31 599.241 1108.51 582.065C1154.7 470.658 1173.51 511.275 1188.36 490.619C1205.08 467.409 1170.26 442.11 1153.54 465.32C1139.38 484.584 1164.45 482.031 1144.49 503.152C1095.28 558.624 1029.82 601.794 959.945 636.608C975.497 560.248 1000.34 485.745 1041.19 424.007C1056.51 399.172 1060.23 424.007 1075.31 405.439C1093.19 383.39 1059.76 356.002 1041.89 378.284C1025.87 398.244 1069.98 405.671 974.337 479.014C959.48 490.619 946.249 497.35 931.857 509.187C928.143 491.083 922.107 477.157 917.929 459.053C889.841 341.844 928.839 363.661 928.839 338.131C928.839 309.583 885.662 309.583 885.662 338.131C885.662 362.037 904.233 345.094 900.519 374.106C893.323 447.913 865.698 521.256 829.718 590.421C797.451 519.399 773.774 444.663 770.292 370.624C767.97 341.612 785.845 359.484 787.005 335.578C788.398 307.03 745.454 304.708 743.829 333.257C742.436 358.787 782.827 339.059 748.471 454.644C743.364 472.747 736.401 485.977 731.758 504.08C718.063 491.547 705.063 483.888 690.903 471.819C599.21 393.602 643.78 388.264 628.691 367.607C611.978 344.397 576.926 369.928 593.871 392.906C608.032 412.17 613.138 387.799 627.066 413.33C664.672 477.157 685.332 552.821 696.938 629.877C629.156 591.349 566.016 544.93 519.821 486.905C501.018 464.624 525.624 468.802 512.625 448.609C497.072 424.703 460.859 448.145 476.412 472.051C490.34 493.404 511.232 453.715 551.391 567.443C557.891 585.082 560.212 599.937 566.944 617.112C548.606 615.023 533.516 616.648 514.946 615.023C394.701 605.507 427.664 575.102 403.29 567.211C376.13 558.391 362.899 599.473 390.059 608.292C412.808 615.72 402.594 592.742 428.825 605.275C496.84 634.984 557.891 683.956 612.674 739.428C535.142 748.247 456.681 747.551 385.184 727.823C356.863 720.86 379.38 709.719 356.863 701.132C330.168 690.919 314.616 731.072 341.311 741.516C365.221 750.8 358.721 706.238 458.074 774.707C473.627 785.151 484.304 795.827 499.857 805.808C483.84 814.859 472.466 825.072 456.449 834.588C353.614 897.718 362.435 853.62 338.061 861.511C310.901 870.331 324.365 911.412 351.292 902.592C374.042 895.165 352.221 882.632 381.005 877.294C453.431 861.279 531.66 864.993 608.728 877.758C551.159 930.444 487.322 975.935 417.914 1002.16C390.987 1013.3 402.361 991.022 379.38 997.056C351.757 1004.48 362.899 1046.03 390.523 1038.83C415.129 1032.1 384.023 1000.07 504.5 997.056C523.303 996.36 538.159 998.681 556.498 997.52C548.837 1014.46 545.588 1029.09 538.391 1046.26C492.197 1157.67 473.394 1117.05 458.538 1137.71C441.824 1160.92 476.644 1186.22 493.358 1163.01C507.518 1143.74 482.448 1146.29 502.411 1125.17C551.623 1069.7 617.084 1026.53 686.956 991.718C671.403 1068.08 646.565 1142.58 605.71 1204.32C590.389 1229.15 586.675 1204.32 571.586 1222.89C553.712 1244.94 587.139 1272.32 605.013 1250.04C621.031 1230.08 576.925 1222.66 672.564 1149.08C687.421 1137.71 700.885 1130.98 715.045 1119.14ZM821.361 883.096C813.701 882.4 806.737 880.543 800.469 877.99C793.97 875.901 787.47 872.884 781.202 868.706C775.631 863.6 770.989 858.029 767.275 852.459C763.328 847.121 759.846 840.854 757.061 833.659C755.436 826.232 754.971 819.037 755.436 812.306C755.436 805.575 756.132 798.38 758.221 790.953C761.239 783.99 765.185 777.956 769.364 772.618C773.31 767.047 778.185 761.941 783.988 757.067C790.488 753.122 797.219 750.568 803.719 748.944C810.219 746.855 817.183 745.462 824.843 744.998C832.504 745.694 839.467 747.551 845.735 750.104C852.235 752.193 858.735 755.21 865.002 759.388C870.806 764.494 875.216 770.064 878.93 775.635C882.877 780.973 886.359 787.24 889.144 794.435C890.769 801.862 891.233 809.057 890.769 815.788C890.769 822.519 890.072 829.714 887.983 837.141C884.966 844.104 881.02 850.138 876.841 855.476C872.895 861.047 868.02 866.153 862.217 871.027C855.717 874.973 848.985 877.526 842.485 879.151C835.986 881.471 829.022 882.864 821.361 883.096ZM817.879 1008.43C814.862 1014.23 811.38 1020.27 807.898 1026.76C788.167 1068.54 798.612 1057.87 793.041 1022.12C789.327 997.753 779.346 981.274 774.471 951.333C751.722 971.293 733.615 978.024 715.509 994.503C688.581 1018.87 689.974 1033.73 700.884 988.701C702.277 981.506 703.67 974.543 704.831 968.276C699.028 971.061 692.76 974.078 686.028 977.328C645.405 999.609 660.261 997.056 676.742 964.795C688.117 942.745 689.742 923.713 703.206 896.558C673.029 899.343 654.69 894.237 630.084 896.79C593.871 900.503 586.443 913.501 621.727 883.56C627.066 878.454 632.173 873.812 637.048 869.17C630.548 868.01 623.817 866.849 616.388 865.457C570.426 859.654 583.89 866.385 616.156 849.906C638.209 838.766 650.976 824.375 677.671 810.217C651.672 794.899 639.833 779.581 618.245 767.512C586.675 749.408 572.979 755.21 619.174 751.961C626.602 751.033 633.334 750.104 639.833 749.408C635.423 744.766 630.548 739.66 625.441 734.321C591.782 702.756 598.746 715.986 634.495 721.556C658.869 725.502 677.671 721.324 707.616 725.734C695.546 697.882 694.849 678.85 684.635 656.337C669.778 623.147 655.154 619.897 694.617 644.268C701.117 647.749 707.152 651.23 712.955 654.248C712.026 647.749 711.098 640.786 710.17 633.591C701.581 588.1 699.26 602.954 725.026 628.717C742.436 646.356 760.078 653.784 781.667 674.904C788.167 645.428 799.077 629.413 803.951 605.275C811.38 569.764 801.63 558.623 819.04 601.329C822.058 608.06 825.075 614.327 827.861 620.129C830.879 614.327 834.361 608.293 837.843 601.794C857.574 560.016 847.128 570.693 852.699 606.436C856.414 630.806 866.395 647.285 871.27 677.226C894.019 657.265 912.125 650.534 930.232 634.055C957.159 609.685 955.766 594.831 944.856 639.858C943.463 647.053 942.07 654.016 940.91 660.282C946.713 657.497 952.98 654.48 959.712 651.23C1000.34 628.949 985.479 631.502 968.997 663.764C957.623 685.813 955.998 704.845 942.535 732.001C972.712 729.215 991.05 734.321 1015.66 731.768C1051.87 728.055 1059.3 715.057 1024.01 744.998C1018.67 750.104 1013.57 754.746 1008.69 759.388C1015.19 760.548 1021.92 761.709 1029.35 763.102C1075.31 768.904 1061.85 762.173 1029.58 778.652C1007.53 789.793 994.997 804.183 968.069 818.341C994.068 833.659 1005.91 848.978 1027.5 861.047C1059.07 879.151 1072.76 873.348 1026.57 876.597C1019.14 877.526 1012.41 878.454 1005.91 879.151C1010.32 883.792 1015.19 888.898 1020.3 894.237C1053.96 926.034 1046.99 912.573 1011.25 907.002C986.872 903.057 968.069 907.234 938.124 902.825C950.195 930.676 950.891 949.708 961.105 972.222C975.961 1005.41 990.586 1008.66 951.123 984.291C944.624 980.809 938.588 977.328 932.785 974.31C933.713 980.809 934.642 987.772 935.571 994.967C944.16 1040.46 946.481 1025.6 920.714 999.841C903.304 982.202 885.662 974.775 864.074 953.654C857.574 983.13 846.664 999.145 841.789 1023.28C834.361 1058.79 844.111 1069.93 826.701 1027.23C823.683 1020.5 820.897 1014.23 817.879 1008.43ZM785.149 920.928C793.041 925.802 804.648 928.355 820.433 909.787C835.057 929.283 846.896 927.195 855.021 922.785C864.306 922.089 875.216 917.446 877.073 893.076C900.518 900.271 908.875 891.684 912.822 883.328C920.018 877.294 926.053 867.081 913.054 846.193C936.267 838.301 937.892 826.464 936.267 817.18C938.357 808.129 937.427 796.292 914.678 787.008C928.606 767.047 923.035 756.371 916.304 749.872C912.822 741.284 904.929 732.232 881.251 738.267C880.787 713.897 870.109 708.558 860.824 707.398C852.932 702.524 841.325 699.971 825.54 718.539C810.915 699.043 799.077 701.132 790.952 705.542C781.667 706.238 770.756 710.88 768.899 735.25C745.454 728.055 737.097 736.643 733.151 744.998C725.955 751.033 719.919 761.245 732.919 782.133C709.706 790.025 708.081 801.862 709.706 811.146C707.616 820.198 708.545 832.035 731.294 841.318C717.366 861.279 722.937 871.956 729.669 878.454C733.151 887.042 741.043 896.094 764.721 890.059C765.185 914.429 776.095 919.768 785.149 920.928Z" fill="#DBBD8A" fill-opacity="0.61"/>
</svg>
